PathFileType	4	(X/Y/Z)	C:\Users\Basilio\Documents\Thesis Gigler\squatting_fais\c3dfiles\076\SLS_front_pre2\markers_experimental.trc
DataRate	CameraRate	NumFrames	NumMarkers	Units	OrigDataRate	OrigDataStartFrame	OrigNumFrames
200.000000	200.000000	4	61	mm	200.000000	398	1595
Frame#	Time	FHD			LBHD			RBHD			C7			T10			CLAV			LSHO			LUUPA			LMUPA			LDUPA			LLEP			LMEP			LRAD			LUL			LRFIN			RSHO			RUPA1			RMUPA			RDUPA			RLEP			RMEP			RRAD			RUL			RUFIN			LASI			RASI			USACR			LSACR			RSACR			LTHI1			LTHI2			LTHI3			LTHI4			LLFC			LMFC			LTIB1			LTIB2			LTIB3			LTIB4			LLMAL			LMMAL			LHEE			LMT1			LMT2			LMT5			RTHI			RTHI2			RTHI3			RTHI4			RLFC			RMFC			RTIB1			RTIB2			RTIB3			RTIB4			RLMAL			RMMAL			RHEE			RMT1			RMT2			RMT5			
		X1	Y1	Z1	X2	Y2	Z2	X3	Y3	Z3	X4	Y4	Z4	X5	Y5	Z5	X6	Y6	Z6	X7	Y7	Z7	X8	Y8	Z8	X9	Y9	Z9	X10	Y10	Z10	X11	Y11	Z11	X12	Y12	Z12	X13	Y13	Z13	X14	Y14	Z14	X15	Y15	Z15	X16	Y16	Z16	X17	Y17	Z17	X18	Y18	Z18	X19	Y19	Z19	X20	Y20	Z20	X21	Y21	Z21	X22	Y22	Z22	X23	Y23	Z23	X24	Y24	Z24	X25	Y25	Z25	X26	Y26	Z26	X27	Y27	Z27	X28	Y28	Z28	X29	Y29	Z29	X30	Y30	Z30	X31	Y31	Z31	X32	Y32	Z32	X33	Y33	Z33	X34	Y34	Z34	X35	Y35	Z35	X36	Y36	Z36	X37	Y37	Z37	X38	Y38	Z38	X39	Y39	Z39	X40	Y40	Z40	X41	Y41	Z41	X42	Y42	Z42	X43	Y43	Z43	X44	Y44	Z44	X45	Y45	Z45	X46	Y46	Z46	X47	Y47	Z47	X48	Y48	Z48	X49	Y49	Z49	X50	Y50	Z50	X51	Y51	Z51	X52	Y52	Z52	X53	Y53	Z53	X54	Y54	Z54	X55	Y55	Z55	X56	Y56	Z56	X57	Y57	Z57	X58	Y58	Z58	X59	Y59	Z59	X60	Y60	Z60	X61	Y61	Z61	

399	1.99	-292.9984436035157	1649.107666015625	-1020.0341796875	-426.708465576172	1570.886962890625	-1117.711791992188	-413.2771911621095	1573.335327148438	-966.1463012695315	-463.6970825195314	1444.820556640625	-1040.969116210938	-476.3836975097657	1128.5537109375	-1049.955444335938	-327.1193847656251	1381.141235351563	-1044.899047851563	-384.9125976562501	1399.430419921875	-1204.768676757813	-230.1805725097657	1355.868408203125	-1274.758056640625	-198.9408264160157	1376.491088867188	-1241.201293945313	-163.5217895507813	1351.91064453125	-1284.212158203125	-113.93115234375	1334.600830078125	-1293.345336914063	-106.3373260498047	1276.837280273438	-1239.169189453125	133.9952392578125	1357.03515625	-1258.854370117188	127.2676773071289	1354.550048828125	-1323.913696289063	217.4121093750001	1370.27685546875	-1265.946411132813	-374.6736755371094	1399.200317382813	-888.4395141601565	-230.3949127197266	1341.56494140625	-811.4111938476565	-201.6806030273438	1376.000244140625	-831.6416625976565	-160.4990844726563	1335.876586914063	-811.7210693359377	-95.07997131347658	1341.791015625	-817.0742797851565	-92.6957473754883	1296.237060546875	-879.4810791015627	147.7643280029297	1353.512329101563	-870.3984985351565	140.0237731933594	1348.437622070313	-804.8792724609377	224.0729675292969	1368.5244140625	-860.9154052734377	-293.6367797851563	950.5838012695315	-1132.787475585938	-316.7083129882813	963.7637939453127	-916.655456542969	-472.9573669433595	1018.072509765625	-1042.804931640625	-477.6033935546876	988.4313964843752	-1069.115844726563	-484.8157958984376	989.869567871094	-1013.020935058594	-367.4391174316407	789.5979614257815	-1192.3916015625	-338.3455505371094	710.6281127929689	-1182.855590820313	-290.1344299316407	714.1392211914064	-1171.907958984375	-368.9654846191407	659.9974365234376	-1165.206665039063	-366.4992980957032	501.2735900878907	-1127.279663085938	-336.6129760742188	506.2637634277345	-1011.721618652344	-329.1729736328126	364.0561218261719	-1045.638427734375	-348.8352966308594	304.5512084960938	-1107.672729492188	-320.2886657714844	311.6914978027344	-1070.340698242188	-332.3658142089844	237.4651641845704	-1031.734008789063	-386.2875061035157	106.7444915771485	-1072.259765625	-358.2608032226563	124.6651916503907	-994.8533325195315	-442.0326538085939	95.49200439453126	-1025.331176757813	-241.4737091064454	52.18325805664064	-1004.187622070313	-234.098617553711	48.62186813354494	-1043.19970703125	-257.5395202636719	42.71166610717774	-1093.447387695313	-313.8076171875001	724.4836425781251	-830.771911621094	-254.8792419433594	691.6614990234376	-828.1265258789065	-225.9823608398438	707.7816162109376	-836.567321777344	-245.3570709228516	609.3335571289064	-831.530944824219	-227.2130432128907	553.5846557617189	-831.778015136719	-195.7120513916016	546.9695434570314	-943.4854125976565	-172.256103515625	422.240203857422	-839.9404907226565	-239.4854431152344	339.6494750976563	-816.7817382812502	-193.4446411132813	338.7962341308594	-824.9448242187502	-175.4297180175782	293.0160827636719	-856.4147949218752	-230.0010681152344	148.7295837402344	-822.3167114257815	-205.6547241210938	164.6395263671875	-904.233337402344	-280.7001647949219	114.8152847290039	-867.3325805664065	-78.17940521240236	123.7001647949219	-882.457946777344	-70.37845611572267	134.8800354003907	-838.759460449219	-97.24794006347659	113.6252212524414	-785.782409667969	
400	1.995	-292.9216308593751	1649.049682617188	-1020.299499511719	-426.7862548828126	1570.889282226563	-1118.104858398438	-413.3721923828126	1573.423217773438	-966.4934692382815	-463.6956176757814	1444.941772460938	-1041.38671875	-476.3697204589845	1128.728881835938	-1050.230590820313	-327.2440795898438	1381.212036132813	-1045.238647460938	-384.7239379882814	1399.469360351563	-1205.220458984375	-229.9381103515626	1355.79833984375	-1274.849731445313	-198.6712951660157	1376.449584960938	-1241.342407226563	-163.4046325683594	1351.951538085938	-1284.4970703125	-113.6389312744141	1334.5009765625	-1293.39453125	-106.0385513305664	1276.864013671875	-1239.14697265625	134.3403930664063	1356.976928710938	-1258.783813476563	127.6473770141602	1354.491943359375	-1323.865234375	217.6499176025391	1370.252319335938	-1265.92236328125	-374.9187011718751	1399.327270507813	-888.8213500976565	-230.8518066406251	1341.582275390625	-811.5652465820315	-201.9567565917969	1376.13720703125	-831.765075683594	-160.7906951904297	1335.958129882813	-811.859558105469	-95.38344573974611	1341.88671875	-817.1801757812502	-92.98365783691408	1296.296508789063	-879.6037597656252	147.4454498291016	1353.493286132813	-870.305358886719	139.7151031494141	1348.410888671875	-804.8168945312502	223.7510223388672	1368.506958007813	-860.8720703125002	-293.8286743164063	950.5889892578127	-1132.922119140625	-316.9322509765626	963.9288330078127	-916.8659667968752	-473.1515502929689	1018.115173339844	-1043.063842773438	-477.762176513672	988.5107421875002	-1069.288940429688	-485.0475158691407	989.981140136719	-1013.270812988281	-367.1561279296876	789.5059814453127	-1192.199096679688	-338.7916259765626	710.4909667968751	-1182.970336914063	-290.5852966308594	714.1041259765626	-1172.032348632813	-369.5003662109376	659.9874877929689	-1165.285400390625	-367.4535522460938	501.3653259277345	-1127.321044921875	-337.2996520996094	506.2471008300782	-1011.742919921875	-329.6967468261719	364.0548095703126	-1045.916015625	-349.5680541992188	304.7109680175782	-1107.858764648438	-320.6213378906251	311.6425476074219	-1070.674560546875	-332.7948913574219	237.7944793701172	-1032.014404296875	-386.3477172851564	106.6960601806641	-1072.473022460938	-358.1282348632813	124.7523956298828	-995.0974121093752	-442.0437011718751	95.49046325683595	-1025.427368164063	-241.2431182861329	52.3203811645508	-1004.423217773438	-234.0640869140626	48.61843872070314	-1043.314086914063	-258.2429809570313	42.93711090087891	-1093.686157226563	-313.8988342285157	724.7093505859376	-831.113952636719	-254.9998474121094	691.8778686523439	-828.5950927734377	-226.1475372314454	707.9694213867189	-837.146911621094	-245.3940734863282	609.5817260742189	-832.1685791015627	-227.0147399902344	553.7172241210939	-832.3773193359377	-196.2409362792969	547.1374511718751	-944.3759765625002	-170.5882415771485	422.9397277832032	-840.6813964843752	-236.7347259521485	339.5148010253907	-816.8767700195315	-190.5765533447266	339.3062133789063	-825.4481201171877	-172.1152038574219	293.7568359375001	-856.9109497070315	-224.5317840576172	148.5607299804688	-822.190368652344	-200.9756164550782	164.8321990966797	-904.2346801757815	-274.9576110839844	113.7067642211914	-866.9414672851565	-72.81387329101564	126.1888809204102	-883.0272216796877	-64.87598419189455	137.2106018066407	-839.3031005859377	-91.16246795654298	115.7322616577149	-786.2497558593752	
401	2	-293.0621948242188	1649.234497070313	-1020.646179199219	-426.9936828613282	1570.468872070313	-1118.28369140625	-413.4570312500001	1573.5341796875	-967.0552368164065	-463.7182922363282	1444.983032226563	-1041.826782226563	-476.4001770019532	1128.838012695313	-1050.494995117188	-327.2570190429688	1381.291625976563	-1045.585083007813	-384.5547485351564	1399.498413085938	-1205.60400390625	-229.6057434082032	1355.779174804688	-1275.067016601563	-198.356674194336	1376.386840820313	-1241.51513671875	-163.186752319336	1351.907348632813	-1284.702392578125	-113.3937911987305	1334.56787109375	-1293.54541015625	-105.7330474853516	1276.837646484375	-1239.181274414063	134.6454772949219	1356.925048828125	-1258.7568359375	127.7930603027344	1354.458129882813	-1323.821533203125	217.8201293945313	1370.191040039063	-1265.898315429688	-375.1588745117188	1399.45263671875	-889.1948242187502	-231.1785583496094	1341.709106445313	-811.7463989257815	-202.2335968017579	1376.263793945313	-831.9566040039065	-161.1609649658203	1336.034057617188	-811.9568481445315	-95.66042327880861	1341.935791015625	-817.1985473632815	-93.33740234375001	1296.328735351563	-879.625915527344	147.1455383300782	1353.515625	-870.229431152344	139.3976745605469	1348.423217773438	-804.7147216796877	223.4568481445313	1368.368530273438	-860.8179931640627	-293.9398498535157	950.5946044921877	-1133.0458984375	-317.2274169921876	964.0169067382815	-917.0201416015627	-473.3378906250001	1018.257263183594	-1043.32080078125	-477.8594665527345	988.5335083007815	-1069.500610351563	-485.2285461425782	990.1951293945315	-1013.467590332031	-367.5819396972657	789.5872802734377	-1192.407592773438	-339.8767089843751	710.6860961914064	-1183.321533203125	-291.0078430175782	713.9688720703126	-1172.19921875	-370.1017150878907	659.9970092773439	-1165.4541015625	-368.3638610839844	501.5325012207032	-1127.372680664063	-337.9710693359376	506.3416748046876	-1011.8935546875	-329.9750976562501	364.8099670410157	-1046.006591796875	-350.2673950195313	304.7465820312501	-1107.993774414063	-321.2627258300782	311.7893371582032	-1070.92724609375	-333.0506591796876	237.8837432861329	-1032.257934570313	-386.4461059570314	106.7138214111328	-1072.634155273438	-358.0457458496094	124.8230819702149	-995.318298339844	-442.116668701172	95.50209808349611	-1025.447143554688	-241.0802154541016	52.41436767578126	-1004.649475097656	-234.1841583251954	48.70346832275392	-1043.391967773438	-258.1989135742188	42.88139724731446	-1093.74365234375	-314.1021118164063	724.7894897460939	-831.4429321289065	-255.2314453125001	691.9523925781251	-829.1697998046877	-226.2976531982422	708.0921630859376	-837.656677246094	-245.4700012207032	609.7952270507814	-832.9505004882815	-226.7710113525391	553.7719116210939	-833.0548095703127	-196.5605621337891	547.1966552734376	-945.1827392578127	-168.9319152832032	423.6351928710939	-841.4044189453127	-233.7828063964844	339.3529968261719	-817.1011352539065	-187.6962890625	339.8469238281251	-825.8225708007815	-168.790771484375	294.3379516601563	-857.4606933593752	-219.1229400634766	148.5850830078125	-822.0210571289065	-196.0329132080079	165.0249481201172	-904.306335449219	-269.2109069824219	112.5473785400391	-866.4836425781252	-67.39930725097658	128.4491119384766	-883.387878417969	-59.32663726806642	139.6526794433594	-839.7308349609377	-85.17672729492189	117.8053588867188	-786.468933105469	
402	2.005	-293.0679321289063	1649.231567382813	-1020.935119628906	-426.7039794921876	1571.095581054688	-1118.845458984375	-413.542694091797	1573.587524414063	-967.387145996094	-463.713592529297	1445.116088867188	-1042.262817382813	-476.4490051269532	1128.908935546875	-1050.75732421875	-327.3023071289063	1381.305908203125	-1045.850463867188	-384.4441833496095	1399.495727539063	-1205.930297851563	-229.4415893554688	1355.748779296875	-1275.2626953125	-198.2115478515626	1376.43505859375	-1241.70947265625	-162.8817596435547	1351.96337890625	-1284.907836914063	-113.18017578125	1334.571533203125	-1293.546020507813	-105.4546966552735	1276.851440429688	-1239.2216796875	134.767333984375	1356.824951171875	-1258.694213867188	128.1360931396485	1354.377319335938	-1323.759887695313	218.0501403808594	1370.15869140625	-1265.87109375	-375.3124694824219	1399.581298828125	-889.5076293945315	-231.4518280029297	1341.8515625	-811.9368286132815	-202.4929809570313	1376.351318359375	-832.106140136719	-161.4423217773438	1336.114379882813	-811.9854125976565	-95.97195434570314	1342.044555664063	-817.240173339844	-93.52790832519533	1296.376953125	-879.683044433594	146.8600006103516	1353.557006835938	-870.1546630859377	139.060531616211	1348.401489257813	-804.6519775390627	223.1746215820313	1368.440063476563	-860.7376098632815	-294.1802062988282	950.6271972656252	-1133.237182617188	-317.4964294433594	964.0975341796877	-917.217712402344	-473.5807495117189	1018.417053222656	-1043.529418945313	-477.931854248047	988.5737304687502	-1069.686889648438	-485.4482421875001	990.3583984375002	-1013.683471679688	-367.9822082519532	789.6079101562502	-1192.48974609375	-340.4949645996094	710.7886962890626	-1183.4052734375	-291.4425048828126	713.8292846679689	-1172.267211914063	-370.7465515136719	660.0405883789064	-1165.528564453125	-369.3367614746094	501.6125488281251	-1127.475708007813	-338.6607971191407	506.2851562500001	-1012.021240234375	-330.4017028808594	364.5806579589844	-1046.540893554688	-350.7915039062501	304.8274841308594	-1108.288696289063	-321.9332275390626	312.0288085937501	-1071.553100585938	-333.0922851562501	237.9065093994141	-1032.53662109375	-386.5130920410157	106.6401062011719	-1072.759643554688	-357.9737243652344	124.9161071777344	-995.543151855469	-442.1361694335939	95.52815246582033	-1025.531860351563	-241.5767364501954	52.65583419799806	-1004.258605957031	-234.1276550292969	48.61243438720705	-1043.380737304688	-257.4893798828126	42.57447814941407	-1093.521484375	-314.2905273437501	724.8767700195314	-831.7698974609377	-255.4835357666016	692.0292968750001	-829.7862548828127	-226.5952758789063	708.2249755859376	-838.340026855469	-245.6301574707032	609.9144287109376	-833.4791259765627	-226.7041015625001	553.7767333984376	-833.7815551757815	-196.8406372070313	547.2713623046876	-946.1654052734377	-167.2436065673828	424.2111816406251	-842.1534423828127	-230.8645935058594	339.2711486816407	-817.3840942382815	-184.8926849365235	340.2628173828126	-826.3940429687502	-165.4396667480469	294.9457702636719	-857.542419433594	-213.6520690917969	148.6269226074219	-821.9024658203127	-190.6400909423828	165.2691497802735	-904.358093261719	-263.2330017089844	111.740478515625	-865.9707031250002	-61.5931739807129	130.3139801025391	-883.6604003906252	-53.88340377807619	142.0151519775391	-840.0462036132815	-79.15472412109376	120.1181564331055	-786.6407470703127	
